<svg width="89" height="90" viewBox="0 0 89 90" xmlns="http://www.w3.org/2000/svg"><title>Group 5</title><g fill="none" fill-rule="evenodd"><path d="M74.367 87.16H14.578c-6.6 0-12-5.4-12-12V15.374c0-6.6 5.4-12 12-12h59.789c6.6 0 12 5.4 12 12V75.16c0 6.6-5.4 12-12 12" fill="#F2D03F"/><path d="M14.579 5.873c-5.239 0-9.5 4.262-9.5 9.5V75.16c0 5.238 4.262 9.5 9.5 9.5h59.788c5.237 0 9.5-4.262 9.5-9.5V15.373c0-5.238-4.263-9.5-9.5-9.5H14.578zM74.367 89.66H14.578c-7.994 0-14.5-6.505-14.5-14.5V15.373c0-7.995 6.505-14.5 14.5-14.5h59.789c7.995 0 14.5 6.505 14.5 14.5V75.16c0 7.995-6.505 14.5-14.5 14.5z" fill="#174472"/></g></svg>